<svg xmlns="http://www.w3.org/2000/svg" viewBox="0 0 20 20" fill="#3B82F6" width="20" height="20">
    <path fill-rule="evenodd" d="M2.24 6.8a.75.75 0 0 0 1.06-.04l1.95-2.1v8.59a.75.75 0 0 0 1.5 0V4.66l1.95 2.1a.75.75 0 1 0 1.1-1.02l-3.25-3.5a.75.75 0 0 0-1.1 0L2.2 5.74a.75.75 0 0 0 .04 1.06Zm8 6.4a.75.75 0 0 0-.04 1.06l3.25 3.5a.75.75 0 0 0 1.1 0l3.25-3.5a.75.75 0 1 0-1.1-1.02l-1.95 2.1V6.75a.75.75 0 0 0-1.5 0v8.59l-1.95-2.1a.75.75 0 0 0-1.06-.04Z" clip-rule="evenodd">
        <animateTransform attributeType="XML" attributeName="transform" type="rotate" from="0 10 10" to="360 10 10" dur="5s" repeatCount="indefinite"/>
    </path>
</svg>

